<svg width="24" height="24" viewBox="0 0 24 24" fill="none" xmlns="http://www.w3.org/2000/svg">
<circle cx="12" cy="12" r="12" fill="#F7F7F7"/>
<path d="M20.4425 16.5382C19.9257 16.5497 19.7449 15.8164 19.709 15.1236C19.7002 14.7685 19.719 14.4133 19.7651 14.0611C19.7786 14.0128 19.7824 13.9623 19.7762 13.9126C19.77 13.8628 19.754 13.8148 19.7291 13.7712C19.7042 13.7276 19.6708 13.6892 19.631 13.6584C19.5911 13.6276 19.5456 13.6048 19.4968 13.5914C19.4481 13.578 19.3972 13.5743 19.347 13.5804C19.2968 13.5866 19.2484 13.6024 19.2044 13.6271C19.1604 13.6518 19.1217 13.6849 19.0906 13.7244C19.0595 13.7639 19.0365 13.8091 19.0231 13.8574C18.939 14.0951 18.8828 14.3416 18.8556 14.592C18.7679 14.8232 18.659 15.0496 18.5666 15.2421C18.4811 15.4601 18.3426 15.6538 18.1634 15.806C17.9841 15.9581 17.7697 16.064 17.5392 16.1142C17.4655 16.1201 17.3914 16.1085 17.3232 16.0802C17.3856 15.7701 17.4214 15.4553 17.4303 15.1392C17.4615 14.4545 17.3293 13.3115 16.3588 13.5719C15.501 13.8014 15.8636 15.4217 16.0164 15.9882C16.0631 16.1693 16.1378 16.3421 16.2379 16.5005C16.1267 16.5238 16.0118 16.5238 15.9005 16.5005C15.7893 16.4772 15.6842 16.4311 15.592 16.3652C15.4998 16.2992 15.4226 16.2149 15.3652 16.1176C15.3078 16.0203 15.2716 15.9122 15.2589 15.8002C15.0507 14.8038 15.1147 13.9195 14.1151 13.2918C13.4399 12.9862 12.6748 12.9378 11.9659 13.1561C11.9616 12.228 11.8835 11.3016 11.7324 10.3857C11.5584 9.07975 11.2756 7.79013 10.2599 6.85931C9.63291 6.30443 8.82142 5.99844 7.98095 6.00001C7.14048 6.00157 6.33016 6.31058 5.70532 6.8678C5.03796 7.50766 4.64843 8.38015 4.61943 9.30007C4.61145 10.1594 4.90637 10.9946 5.45328 11.6614C6.1553 12.5779 6.96552 12.9456 7.31448 13.8058C7.43418 14.0593 7.48242 14.3402 7.45409 14.6188C7.42575 14.8973 7.32189 15.163 7.15353 15.3877C6.90485 15.6575 6.58568 15.8539 6.23137 15.955C5.87706 16.056 5.50143 16.0579 5.14611 15.9604C4.76409 15.8478 4.43415 15.6057 4.21397 15.2764C3.91467 14.8629 3.76879 14.5183 3.33936 14.2148C3.19554 14.113 3.04554 14.2552 3.02739 14.3921C2.93969 15.0039 3.064 15.6272 3.38 16.16C3.696 16.6928 4.18499 17.1035 4.76702 17.325C5.30049 17.5415 5.88086 17.6194 6.45319 17.5514C7.02553 17.4835 7.57091 17.2719 8.03772 16.9367C8.80035 16.4044 9.40751 14.6918 9.00479 13.613C8.36339 11.8956 6.90799 11.2411 6.35666 10.5632C6.17579 10.3536 6.04008 10.1094 5.95789 9.84587C5.87569 9.5823 5.84874 9.30486 5.87869 9.03058C5.90864 8.75631 5.99485 8.49101 6.13203 8.25098C6.26922 8.01095 6.45447 7.80127 6.67641 7.63483C6.89834 7.46838 7.15227 7.34869 7.42259 7.2831C7.6929 7.21751 7.9739 7.20742 8.24829 7.25344C8.52269 7.29946 8.78469 7.40062 9.0182 7.55071C9.2517 7.7008 9.45178 7.89664 9.60613 8.1262C10.3218 9.22097 10.2468 10.8195 10.3023 12.0579C10.3345 12.7779 10.2866 13.4531 10.2876 14.1734C9.91757 14.5134 9.62112 14.9244 9.41625 15.3814C9.21139 15.8385 9.1024 16.332 9.09588 16.8321C9.09352 16.9935 9.12493 17.1535 9.18811 17.3022C9.25129 17.4509 9.34489 17.585 9.46298 17.6961C9.60609 17.8162 9.77383 17.9041 9.95459 17.9536C10.1353 18.0032 10.3248 18.0132 10.5098 17.9829C11.8265 17.8627 11.8854 15.957 11.9399 14.9851C11.9399 14.9773 11.932 14.4874 11.9327 14.4796C12.2024 14.3076 12.528 14.2438 12.8435 14.3011C13.159 14.3584 13.4406 14.5325 13.6312 14.7882C14.2819 15.571 14.0545 16.6189 14.6449 17.3138C15.1928 17.9588 16.3259 17.6618 16.84 17.0989C17.1024 17.2284 17.3916 17.2954 17.6847 17.2947C17.9778 17.2941 18.2667 17.2258 18.5286 17.0952C18.7734 16.9834 18.9883 16.8164 19.1563 16.6074C19.2603 16.8527 19.4145 17.0739 19.6089 17.2573C19.8034 17.4407 20.034 17.5822 20.2863 17.673C21.0938 17.9371 21.3099 16.5188 20.4415 16.5382" fill="#F4969C"/>
</svg>
