<svg width="25" height="25" viewBox="0 0 25 25" fill="none" xmlns="http://www.w3.org/2000/svg">
<path d="M6.31294 6.93503C6.31294 6.93503 7.33322 2.59206 8.53529 1.15719C8.53529 1.15719 10.4499 -0.246818 15.2003 5.30173C15.2003 5.30173 19.7225 4.11863 22.4292 4.89738C22.4292 4.89738 22.389 7.07447 20.2141 12.9759C20.2141 12.9759 23.6654 16.323 24.0041 18.1613C21.2435 18.7197 18.4254 19.0121 15.5969 19.0337C15.5969 19.0337 15.4121 23.4692 13.4778 24.9987C10.6584 23.4162 8.5242 21.0041 7.43237 18.166C5.44424 19.0948 3.1946 19.4622 0.973821 19.2208C0.973821 19.2208 0.922182 17.01 4.59654 13.5412C2.70308 11.6918 1.15228 9.57688 0.00415039 7.27849C2.02117 6.59182 4.21972 6.47216 6.31294 6.93503Z" fill="#FAF5B0"/>
<path d="M24 18.1613C21.0788 14.9777 17.3382 12.4946 13.1081 10.9308C13.1081 10.9308 15.8169 15.2962 15.5928 19.0336" fill="#FAF5B0"/>
<path d="M7.42822 18.1612C12.3604 15.9401 12.8902 10.5742 12.8902 10.5742C12.8902 10.5742 5.6902 7.20456 0.0020752 7.27476" fill="#FAF5B0"/>
<path d="M4.59244 13.5365C4.59244 13.5365 10.6554 13.9559 13.675 10.9326Z" fill="#FAF5B0"/>
</svg>
