<svg width="181" height="70" viewBox="0 0 181 70" fill="none" xmlns="http://www.w3.org/2000/svg">
<path d="M176.85 21.1758C173.473 22.8718 170.672 25.5266 168.797 28.8076C168.75 28.7307 168.71 28.6517 168.662 28.5768C166.118 24.6403 160.705 23.8584 156.705 25.418C154.687 26.2759 152.864 27.5332 151.346 29.1144C148.69 32.0785 147.308 35.9692 147.499 39.9446C147.821 43.2344 149.266 46.4795 152.282 48.1057C154.005 49.057 155.98 49.4562 157.938 49.2494C158.042 49.2494 158.146 49.2567 158.25 49.2494C158.501 49.2421 158.739 49.212 158.977 49.185C156.042 53.4969 150.885 57.5176 145.877 58.6925C145.248 58.8242 144.599 58.8257 143.969 58.6971C143.34 58.5684 142.744 58.3124 142.217 57.9446C141.69 57.5768 141.244 57.1051 140.907 56.5585C140.569 56.012 140.347 55.4021 140.254 54.7664C139.303 50.1696 141.411 46.5523 142.916 42.5409C144.305 38.8383 140.595 35.8209 137.148 37.0936C135.918 37.4404 134.61 37.3975 133.405 36.9708C133.914 33.7143 133.666 30.1417 130.437 29.4918C125.721 28.5467 125.278 35.2053 126.61 38.0782C127.072 39.0771 127.682 40.0005 128.42 40.8169C126.667 44.9646 125.01 48.3303 121.466 51.461C120.663 52.1691 119.036 53.6175 117.887 53.6518C116.346 53.6965 115.308 51.3643 114.685 49.8046C117.02 45.3014 118.681 40.7587 116.959 35.8406C116.668 34.8941 116.104 34.055 115.337 33.4294C114.08 32.5269 112.614 32.4936 110.825 34.7291C108.283 37.9087 108.567 44.0579 109.197 47.6908C108.843 48.0332 108.488 48.3639 108.129 48.6828C105.09 51.3726 98.7924 54.2767 97.1953 48.5174C95.8936 43.826 97.0727 37.184 98.312 32.1755C100.219 31.8433 102.024 31.0805 103.592 29.9452C105.869 28.2816 103.522 24.6528 101.028 25.8183C100.671 25.9825 100.302 26.1188 99.9246 26.2259C101.068 21.7113 101.638 16.6081 97.0643 14.5712C96.7107 14.4359 96.3179 14.4457 95.9715 14.5986C95.6251 14.7515 95.3531 15.035 95.2147 15.3874C94.0595 18.7022 93.5064 22.1854 92.6465 25.6166C90.2551 24.9189 87.8513 24.1266 85.4048 24.3907C83.4293 24.606 83.1672 27.1409 84.4981 28.2379C86.4529 29.8456 88.715 31.0379 91.1462 31.7419C90.7303 33.7621 90.3965 35.7969 90.122 37.8661C89.2382 44.5528 89.0958 55.3341 96.5445 58.6239C102.027 61.0466 107.72 58.7445 111.491 54.5959C112.39 56.2922 113.618 57.7932 115.102 59.0118C119.459 62.5272 124.366 58.9566 126.546 55.0222C128.545 51.2625 130.242 47.35 131.622 43.3217C132.218 43.641 132.836 43.9189 133.471 44.1535C131.961 49.7745 131.391 55.9091 135.342 60.5049C138.349 64.0047 143.903 64.2615 148.104 62.9285C150.483 62.1592 152.754 61.0889 154.862 59.7438C158.05 57.4856 160.908 54.7932 163.352 51.7448C163.088 54.2988 162.664 56.8339 162.084 59.3351C161.686 61.2501 160.702 62.9941 159.27 64.326C156.913 66.55 155.92 64.5132 154.258 62.9431C152.597 61.3731 150.457 64.0338 151.649 65.6964C153.742 68.614 158.892 71.0969 162.474 69.4863C166.576 67.6408 168.11 63.0824 168.609 58.9202C169.384 52.4592 169.108 46.2352 170.845 39.8583C172.214 34.8383 174.775 29.2828 179.36 26.6876C182.704 24.7962 180.453 19.5018 176.846 21.1696L176.85 21.1758ZM165.56 33.8173C165.61 34.0446 165.651 34.2733 165.683 34.5035C165.576 34.7177 165.47 34.9315 165.363 35.145C163.804 38.2997 162.684 41.3129 159.523 43.2292C156.255 45.212 155.842 41.0727 156.534 39.0805C157.06 37.3426 157.771 35.6662 158.655 34.0803C160.723 30.725 164.452 28.9116 165.564 33.8235" fill="#3D3334"/>
<path d="M118.417 27.3738C118.558 26.9049 118.547 26.4039 118.388 25.9411C118.183 25.2753 117.831 24.6637 117.36 24.1506C117.186 23.9633 116.986 23.8022 116.766 23.6723C116.173 23.2358 115.446 23.0224 114.711 23.0696C113.976 23.1168 113.282 23.4215 112.75 23.9301C112.281 24.191 111.872 24.5482 111.551 24.9783C111.229 25.4084 111.003 25.9016 110.886 26.4256C110.74 26.9551 110.74 27.514 110.886 28.0435C111.116 28.7993 111.613 29.4458 112.284 29.8631C112.699 30.1613 113.168 30.3783 113.664 30.5025C114.002 30.5946 114.353 30.6373 114.703 30.6294C115.308 30.6154 115.9 30.4556 116.429 30.1635C116.991 29.8494 117.456 29.3873 117.774 28.8274C117.791 28.7983 117.801 28.7703 117.817 28.7422C118.061 28.4232 118.243 28.0614 118.354 27.6754C118.381 27.5747 118.403 27.4726 118.419 27.3697" fill="#3D3334"/>
<path d="M66.393 41.0613C66.3651 40.8429 66.3299 40.9053 66.393 41.0613Z" fill="#3D3334"/>
<path d="M87.1093 52.4799C84.5578 52.5403 83.6657 48.8855 83.4879 45.4356C83.4451 43.6676 83.5379 41.899 83.7656 40.1453C83.8766 39.6672 83.7986 39.1647 83.5477 38.7428C83.2968 38.321 82.8926 38.0125 82.4195 37.8818C81.9464 37.7512 81.4411 37.8085 81.0093 38.0417C80.5775 38.275 80.2526 38.6662 80.1026 39.1335C79.6851 40.3177 79.406 41.5462 79.2708 42.7945C78.8393 43.9466 78.3007 45.0737 77.8443 46.0324C76.8992 48.0183 75.1067 50.1405 72.7704 50.3755C72.4069 50.4082 72.0409 50.354 71.7026 50.2174C72.0115 48.6717 72.1893 47.1027 72.2339 45.5271C72.3867 42.1187 71.7337 36.426 66.9416 37.7215C62.7057 38.8653 64.4972 46.937 65.2593 49.7579C65.4902 50.6595 65.8596 51.5199 66.3542 52.3084C65.805 52.4249 65.2375 52.4252 64.6881 52.3093C64.1388 52.1934 63.6198 51.9639 63.1645 51.6355C62.7092 51.307 62.3276 50.887 62.0443 50.4023C61.7609 49.9176 61.5821 49.379 61.5194 48.821C60.4921 43.8582 60.8061 39.4538 55.8716 36.3283C53.3045 34.7021 47.2293 34.6179 45.261 35.6431C45.2393 31.0207 44.8538 26.4073 44.108 21.8454C43.2502 15.3407 41.8528 8.91698 36.8382 4.27964C30.4126 -1.65949 20.8127 -1.20303 14.3518 4.32331C10.7741 7.3823 8.91711 13.1675 8.99197 16.4386C8.95229 20.719 10.4082 24.879 13.1083 28.2004C16.5748 32.7557 20.5757 34.596 22.2975 38.8809C23.3372 41.4647 23.3372 44.6225 21.4938 46.7519C20.2661 48.096 18.6904 49.074 16.9411 49.5776C15.1919 50.0812 13.3373 50.0907 11.583 49.605C9.69619 49.0445 8.06628 47.8389 6.97801 46.1988C5.50262 44.1379 4.78833 42.4223 2.65999 40.9116C1.95193 40.4062 1.21163 41.1122 1.12222 41.7943C0.688742 44.8416 1.30212 47.9457 2.86201 50.5991C4.42191 53.2524 6.83598 55.2979 9.70939 56.4009C12.3433 57.48 15.2091 57.8688 18.0353 57.5306C20.8616 57.1923 23.5547 56.1382 25.8596 54.468C29.6245 51.8166 32.6179 43.2874 30.6341 37.9139C27.4681 29.3577 20.2804 26.1001 17.5583 22.723C13.6146 17.8288 14.2 11.7119 19.5339 7.83564C20.6228 7.04858 21.8617 6.49355 23.174 6.205C24.4862 5.91644 25.8437 5.90051 27.1623 6.15816C28.4809 6.41581 29.7326 6.94156 30.8397 7.70283C31.9468 8.4641 32.8858 9.44466 33.5983 10.5837C37.1334 16.0373 36.7633 23.9967 37.0378 30.1677C37.1969 33.7538 36.9598 37.1164 36.965 40.7067C35.1375 42.3994 33.6735 44.4462 32.6619 46.7226C31.6504 48.9989 31.1126 51.4573 31.0811 53.9481C31.0683 54.7527 31.2228 55.5511 31.5348 56.2928C31.8468 57.0345 32.3094 57.7033 32.8934 58.2569C34.2024 59.358 35.4179 59.8165 38.0619 59.6834C44.5624 59.0856 44.8535 49.5977 45.1217 44.7535C45.1217 44.7129 45.0853 42.2737 45.0874 42.2341C46.4194 41.3787 48.0268 41.0616 49.5838 41.3471C51.1409 41.6327 52.5311 42.4995 53.4729 43.7719C56.6961 47.67 55.5628 52.8907 58.4782 56.3531C61.1898 59.5763 66.7794 58.0864 69.3153 55.2832C70.6112 55.9279 72.0394 56.262 73.4867 56.2589C74.9341 56.2559 76.3609 55.9157 77.654 55.2655C78.8603 54.7057 79.9183 53.8705 80.7431 52.8272C81.2584 54.0506 82.0216 55.1539 82.9845 56.0677C83.9474 56.9814 85.0892 57.6857 86.3379 58.1363C90.3253 59.4526 91.3889 52.3822 87.1021 52.482L87.1093 52.4799ZM37.0378 51.7334C37.0393 52.7493 36.8408 53.7555 36.4535 54.6946C36.373 54.8245 36.2576 54.929 36.1204 54.9963C35.9833 55.0635 35.83 55.0908 35.6781 55.0749C35.5262 55.0591 35.3818 55.0008 35.2615 54.9067C35.1412 54.8126 35.0498 54.6865 34.9978 54.5428C34.3355 52.9011 36.0178 49.1101 37.0419 47.6617C37.144 49.017 37.144 50.3781 37.0419 51.7334" fill="#3D3334"/>
</svg>
