<svg width="167" height="69" viewBox="0 0 167 69" fill="none" xmlns="http://www.w3.org/2000/svg">
<path d="M2.34406 17.5172L17.2849 3.70544L32.2257 17.5172L44.4498 5.93329L56.2205 17.5172L72.068 5.93329L84.293 17.5172" stroke="#3D3334" stroke-width="4" stroke-miterlimit="10"/>
<path d="M2.34406 41.3974L17.2849 27.5857L32.2257 41.3974L44.4498 29.8135L56.2205 41.3974L72.068 29.8135L84.293 41.3974" stroke="#3D3334" stroke-width="4" stroke-miterlimit="10"/>
<path d="M2.34406 65.2777L17.2849 51.4659L32.2257 65.2777L44.4498 53.6938L56.2205 65.2777L72.068 53.6938L84.293 65.2777" stroke="#3D3334" stroke-width="4" stroke-miterlimit="10"/>
<path d="M82.6872 17.5172L97.628 3.70544L112.569 17.5172L124.793 5.93329L136.564 17.5172L152.411 5.93329L164.636 17.5172" stroke="#3D3334" stroke-width="4" stroke-miterlimit="10"/>
<path d="M82.6872 41.3974L97.628 27.5857L112.569 41.3974L124.793 29.8135L136.564 41.3974L152.411 29.8135L164.636 41.3974" stroke="#3D3334" stroke-width="4" stroke-miterlimit="10"/>
<path d="M82.6872 65.2777L97.628 51.4659L112.569 65.2777L124.793 53.6938L136.564 65.2777L152.411 53.6938L164.636 65.2777" stroke="#3D3334" stroke-width="4" stroke-miterlimit="10"/>
</svg>
